<svg xmlns="http://www.w3.org/2000/svg" viewBox="0 0 58.418 58.5"><defs><style>.a{fill:#4a4a4a;}</style></defs><g transform="translate(-0.36 0)"><g transform="translate(0.36 18.985)"><g transform="translate(0)"><path class="a" d="M6.868,166.155H1.775a1.415,1.415,0,0,0,0,2.83H6.868a1.415,1.415,0,1,0,0-2.83Z" transform="translate(-0.36 -166.155)"/></g></g><g transform="translate(50.855 18.985)"><path class="a" d="M448.8,166.155h-5.093a1.415,1.415,0,1,0,0,2.83H448.8a1.415,1.415,0,1,0,0-2.83Z" transform="translate(-442.293 -166.155)"/></g><g transform="translate(6.578 36.856)"><path class="a" d="M60.9,322.978a1.415,1.415,0,0,0-2,0l-3.7,3.7a1.415,1.415,0,1,0,2,2l3.7-3.7A1.415,1.415,0,0,0,60.9,322.978Z" transform="translate(-54.782 -322.563)"/></g><g transform="translate(43.535 0)"><g transform="translate(0 0)"><path class="a" d="M384.254.415a1.415,1.415,0,0,0-2,0l-3.6,3.6a1.415,1.415,0,0,0,2,2l3.6-3.6A1.415,1.415,0,0,0,384.254.415Z" transform="translate(-378.235 0)"/></g></g><g transform="translate(9.169 0)"><path class="a" d="M83.474,4.017l-3.6-3.6a1.415,1.415,0,0,0-2,2l3.6,3.6a1.415,1.415,0,0,0,2-2Z" transform="translate(-77.457 -0.002)"/></g><g transform="translate(46.038 36.87)"><path class="a" d="M406.247,326.79l-3.691-3.691a1.415,1.415,0,0,0-2,2l3.691,3.691a1.415,1.415,0,0,0,2-2Z" transform="translate(-400.14 -322.684)"/></g><g transform="translate(11.822 3.843)"><path class="a" d="M118.419,33.636c-9.786,0-17.747,8.328-17.747,18.564a24.887,24.887,0,0,0,4.677,14.054,17.809,17.809,0,0,1,3.489,10.311v8.9a2.834,2.834,0,0,0,2.83,2.83h13.5a2.834,2.834,0,0,0,2.83-2.83v-8.9a17.811,17.811,0,0,1,3.489-10.311A24.887,24.887,0,0,0,136.167,52.2C136.167,41.964,128.205,33.636,118.419,33.636Zm6.751,51.827h-13.5V83.612h6.751a1.415,1.415,0,1,0,0-2.83h-6.751V78.93h13.5l0,6.532Zm-8.735-26.4-1.893-4.043H122.3L120.4,59.059a1.418,1.418,0,0,0-.13.506l-1.1,16.534h-1.514l-1.1-16.534A1.418,1.418,0,0,0,116.435,59.059Zm12.75,5.553A20.722,20.722,0,0,0,125.176,76.1h-3.163l1.067-16.082L125.8,54.2a1.415,1.415,0,0,0-1.282-2.015h-12.2a1.415,1.415,0,0,0-1.282,2.015l2.723,5.817L114.826,76.1h-3.163a20.72,20.72,0,0,0-4.008-11.488A22.311,22.311,0,0,1,103.5,52.2c0-8.676,6.692-15.734,14.917-15.734s14.917,7.058,14.917,15.734A22.308,22.308,0,0,1,129.184,64.612Z" transform="translate(-100.672 -33.636)"/></g></g></svg>