<svg xmlns="http://www.w3.org/2000/svg" viewBox="0 0 63.463 55.992"><defs><style>.a{fill:#58534b;}</style></defs><g transform="translate(0)"><path class="a" d="M122.826,194.631a1.044,1.044,0,0,1-.678-.25l-6.78-5.773a1.048,1.048,0,0,1,0-1.6l6.78-5.773a1.047,1.047,0,1,1,1.358,1.6l-5.843,4.976,5.843,4.976a1.048,1.048,0,0,1-.68,1.846Zm0,0" transform="translate(-97.787 -153.899)"/><path class="a" d="M250.756,194.631a1.048,1.048,0,0,1-.68-1.846l5.843-4.976-5.843-4.976a1.047,1.047,0,0,1,1.358-1.6l6.78,5.773a1.048,1.048,0,0,1,0,1.6l-6.78,5.773a1.044,1.044,0,0,1-.678.25Zm0,0" transform="translate(-212.332 -153.899)"/><path class="a" d="M190,175.183a1.067,1.067,0,0,1-.217-.023,1.048,1.048,0,0,1-.809-1.241l4.225-20.062a1.048,1.048,0,0,1,2.051.432l-4.226,20.062A1.048,1.048,0,0,1,190,175.183Zm0,0" transform="translate(-160.672 -130.12)"/><path class="a" d="M56.429,55.992H7.035A7.043,7.043,0,0,1,0,48.958V7.035A7.043,7.043,0,0,1,7.035,0H56.429a7.043,7.043,0,0,1,7.035,7.035V48.958A7.043,7.043,0,0,1,56.429,55.992ZM7.035,2.1A4.945,4.945,0,0,0,2.1,7.035V48.958A4.945,4.945,0,0,0,7.035,53.9H56.429a4.945,4.945,0,0,0,4.939-4.939V7.035A4.945,4.945,0,0,0,56.429,2.1Zm0,0"/><path class="a" d="M62.416,100.185H1.048a1.048,1.048,0,0,1,0-2.1H62.416a1.048,1.048,0,0,1,0,2.1Zm0,0" transform="translate(0 -83.408)"/><path class="a" d="M100.765,40.921a3.316,3.316,0,1,1,3.316-3.316A3.32,3.32,0,0,1,100.765,40.921Zm0-4.536a1.22,1.22,0,1,0,1.22,1.22A1.222,1.222,0,0,0,100.765,36.385Zm0,0" transform="translate(-82.864 -29.157)"/><path class="a" d="M32.7,40.706a3.316,3.316,0,1,1,3.316-3.316A3.319,3.319,0,0,1,32.7,40.706Zm0-4.536a1.22,1.22,0,1,0,1.22,1.22A1.222,1.222,0,0,0,32.7,36.17Zm0,0" transform="translate(-24.988 -28.974)"/><path class="a" d="M168.831,41.135a3.315,3.315,0,1,1,3.316-3.316A3.319,3.319,0,0,1,168.831,41.135Zm0-4.536a1.22,1.22,0,1,0,1.22,1.22A1.221,1.221,0,0,0,168.831,36.6Zm0,0" transform="translate(-140.742 -29.34)"/></g></svg>