<svg xmlns="http://www.w3.org/2000/svg" viewBox="0 0 135.611 134.622"><defs><style>.a{fill:#4a4a4a;}.b{fill:#fff;opacity:0.58;}</style></defs><g transform="translate(0)"><rect class="a" width="135.611" height="134.622"/><path class="b" d="M77.322,91.042,95.5,125.964c.325.519.13,1.039-.389,1.039H83.813a1.274,1.274,0,0,1-1.363-.844c-4.154-8.568-8.373-17.136-12.722-26.353H69.6c-3.895,8.7-8.179,17.85-12.333,26.418a1.246,1.246,0,0,1-1.168.714H45.386c-.649,0-.714-.519-.389-.909L62.782,92.146l-17.2-34.272a.525.525,0,0,1,.389-.909H57.135a1.022,1.022,0,0,1,1.168.714c4.089,8.568,8.243,17.4,12.138,26.029h.13c3.765-8.568,7.919-17.461,11.943-25.964.325-.519.519-.844,1.168-.844h10.45c.519,0,.714.389.389.909Zm21.355,10.58c0-15.124,10.061-26.937,26.029-26.937a28.782,28.782,0,0,1,3.375.13v-17.2a.65.65,0,0,1,.649-.649h10.256c.519,0,.649.195.649.519v59.587a46.232,46.232,0,0,0,.325,6.361c0,.389-.13.519-.519.714a38.664,38.664,0,0,1-16.617,3.765C108.738,127.976,98.677,119.278,98.677,101.623Zm29.4-16.617a9.816,9.816,0,0,0-3.765-.649c-8.179,0-13.891,6.3-13.891,16.747,0,11.943,5.842,16.747,13.177,16.747a12.246,12.246,0,0,0,4.479-.714Z" transform="translate(-24.937 -24.838)"/></g></svg>