<svg xmlns="http://www.w3.org/2000/svg" viewBox="0 0 63.591 141.22"><defs><style>.a{fill:#4a4a4a;}</style></defs><g transform="translate(0)"><path class="a" d="M49.83,137.671l1.355-22.577,3.741-6.386s-8.515,3.483-22.77,3.483-22.642-3.419-22.642-3.419l4.193,6.967,1.483,21.932c0,2.351,7.754,4.257,17.32,4.257s17.32-1.906,17.32-4.257M45.556,32.24,48.4,21,64.149,4.427,60,.892,43.325,18.545l-3.3,13.43q-3.728-.125-7.458-.124c-17.56,0-31.8,2-31.8,4.469S15,40.79,32.565,40.79s31.8-2,31.8-4.469c0-1.818-7.721-3.382-18.8-4.08" transform="translate(-0.769 -0.709)"/><path class="a" d="M154.746,147.053a13.5,13.5,0,0,1-2.428.146c-1.812.007-3.1-.012-3.612-.479a.809.809,0,0,1-.212-.543.7.7,0,0,1,.519-.628l.274.43c-.119.041-.187.09-.188.142,0,.244,1.853.41,3.271.392s3.132-.134,3.133-.374c0-.073-.13-.141-.355-.195l.273-.427c.367.114.688.335.688.716,0,.649-.829.747-1.364.82" transform="translate(-111.613 -109.226)"/><path class="a" d="M64.786,3.909c.4-.457-.2-1.627-1.342-2.613S61.063-.116,60.666.341s.2,1.627,1.343,2.612,2.381,1.414,2.777.956M49.741,81.974c-.373-3.591,7.855-8.792,5.743-8.959-4.546.26-6.808,5.327-9.1,10.635-.838,1.945-3.706,10.239-5.587,9.218s2.438-7.841,3.648-11.892c-1.4,1.024-6.518,5-7.838,1.277-2.122,1.8-6.657,2.779-6.145-1.956-1.129,2-3.663,4.792-6.7,3.632-3.994-1.523,2.314-14.246,3.883-13.6s-.317,3.54-.81,4.665c-1.086,2.477-2.341,5.591-1.5,6.228,1.436,1.092,5.343-4.131,5.43-4.246.731-.965,2.813-7.282,4.491-6.556s-4.185,9.065-1.993,10.72c.442.334,2.251-.206,3.352-1.4.712-.77.467-2.476,2.841-8.136s4.489-12.709,6.117-12.172.286,4.155-.3,5.5c-2.74,6.33-7.479,16.787-5.244,16s3.4-.838,5.587-3.4,2.087-6.779,3.546-6.689,1.214,1.442.86,2.472c1.436-1.643,6.8-5.1,8.1-1.676,1.535,4.057-7.682,9.917-5.384,9.618,2.241-.291,5.871-2.59,7.421-4.681L64.424,38.22s-4.293,3.553-31.6,3.553S1.659,38.294,1.659,38.294L5.291,73.3C7.219,67.823,11.8,56.74,19.013,57.112c3.283.169,7.665,6.49,3.911,6.7-1.589.09-1.75-3.155-3.632-3.632-1.358-.344-3.248.76-4.469,1.956C12.387,64.525,7.147,73.932,7.84,78.622c.882,5.979,8.251-2.078,9.5-4.47.878-1.685,1.471-6.677,3.392-6.153s-.168,5.676-1.56,10.231c-1.564,5.115-2.386,10.51-4.346,9.89s1.233-7.223,1.117-8.38c-1.843,1.7-5.237,6-9.58,3.874l2.256,21.74s6,4.737,24.055,4.737,24.277-4.663,24.277-4.663l2.8-25.18c-2.292,2.231-9.544,6.194-10.009,1.727" transform="translate(-1.437 -0.158)"/></g></svg>