<svg xmlns="http://www.w3.org/2000/svg" viewBox="0 0 128.085 135.308"><defs><style>.a{fill:#4a4a4a;}</style></defs><g transform="translate(0)"><path class="a" d="M28.335,22.476C20.179,34.2,21.194,49.448,27.425,61.9l.456.885.292.561.182.323.325.581c.193.341.392.679.595,1.02l.339.559q.338.542.69,1.079l.294.454c.325.485.657.967,1,1.443l.029.037.169.227c.3.408.6.812.911,1.213l.343.436c.276.347.557.691.842,1.036l.322.384c.383.45.774.9,1.173,1.34l.023.024.045.05c.389.425.788.841,1.193,1.257l.382.385c.313.315.631.625.952.933l.389.371c.429.4.862.8,1.3,1.187l.02.018.227.193q.584.508,1.185,1l.49.392c.326.261.656.519.987.772l.529.4q.549.4,1.108.8l.4.286.112.08c.353.244.716.478,1.076.712l.466.311c.555.349,1.117.7,1.685,1.032l.466.263c.418.241.839.478,1.265.709l.7.362.905.47.209.1.371.179c.474.226.952.449,1.434.665l.3.135q.829.363,1.673.7l.408.16c.52.2,1.048.4,1.579.585l.2.069c.581.2,1.169.392,1.761.577l.425.126a17.19,17.19,0,0,0,1.817.513c39.442,7.192,50.9-23.7,50.9-23.7-9.623,12.536-26.7,15.842-42.885,12.161-.613-.139-1.208-.331-1.806-.506l-.45-.138q-.875-.268-1.74-.566l-.239-.085c-.516-.182-1.025-.373-1.533-.569l-.43-.169c-.556-.22-1.109-.449-1.655-.688l-.331-.148c-.469-.212-.934-.426-1.4-.649l-.4-.194c-.363-.176-.721-.364-1.081-.549l-.72-.378c-.438-.233-.868-.477-1.295-.726l-.437-.243q-.854-.5-1.686-1.034l-.455-.3c-.4-.26-.8-.525-1.2-.8l-.387-.272c-.382-.268-.76-.542-1.134-.819l-.5-.381c-.344-.263-.686-.528-1.023-.8l-.456-.366q-.646-.529-1.275-1.075l-.14-.116c-.454-.4-.9-.808-1.34-1.218L46,64.6c-.326-.31-.648-.622-.963-.944l-.377-.377q-.6-.616-1.182-1.249l-.059-.063c-.408-.446-.808-.9-1.2-1.363l-.314-.373c-.292-.351-.58-.708-.862-1.066l-.316-.394c-.341-.44-.671-.88-1-1.326C30.749,45.188,27.521,28.285,34.7,14.4m18.95-1.8c-5.9,8.487-5.578,19.85-.976,28.825a37.437,37.437,0,0,0,2.608,4.354,20.624,20.624,0,0,0,3.036,3.792c.425.468.87.925,1.324,1.373l.348.345c.44.427.889.848,1.351,1.256l.055.048.013.013c.513.449,1.042.881,1.579,1.307l.358.28c.539.413,1.088.819,1.652,1.206l.048.037.754.5.357.236c.4.258.81.509,1.225.75l.173.1c.357.205.719.407,1.082.6l.385.2.757.393.114.052c.52.255,1.044.5,1.58.736l.348.144c.428.181.86.358,1.295.525l.555.2c.395.146.79.281,1.189.414l.537.172a13.348,13.348,0,0,0,1.718.5c30.453,5.044,37.483-18.4,37.483-18.4-6.337,9.128-18.61,13.483-31.707,10.083q-.872-.23-1.725-.5l-.518-.168c-.4-.13-.808-.27-1.206-.415l-.545-.2q-.656-.253-1.3-.525l-.349-.148q-.807-.351-1.589-.739l-.8-.4-.459-.236c-.339-.184-.677-.375-1.008-.57l-.241-.136c-.413-.241-.819-.488-1.22-.746l-.368-.245-.79-.524c-.561-.387-1.108-.792-1.646-1.2l-.371-.293A36.713,36.713,0,0,1,56.326,27.863,27.507,27.507,0,0,1,58.473,5.8m16.471-.575a17.747,17.747,0,0,0-1.406,17.124A24.112,24.112,0,0,0,87.38,35.281l.757.261.333.107a9.243,9.243,0,0,0,1.085.313c16.815,3.249,21.376-8.628,22.59-10.377-3.995,5.752-10.709,7.133-18.947,5.133-.65-.158-1.366-.393-1.992-.616a24.743,24.743,0,0,1-2.367-.983,24.618,24.618,0,0,1-4.15-2.532c-7.372-5.594-11.95-16.263-7.14-24.953" transform="translate(-4.5 -1.634)"/><path class="a" d="M72.932,96.866H68.244a.616.616,0,0,0-.574.463l-1.664,7.7-1.664,7.7a.614.614,0,0,1-.572.463H60.451c-3.283,0-2.9-2.271-2.231-5.382l.02-.094.073-.393.013-.073.15-.8.161-.855.171-.871.757-3.7.758-3.7a.373.373,0,0,0-.378-.465H55.133a.61.61,0,0,0-.57.464l-1.035,4.908-1.034,4.909,0,.007-.1.457C51.2,113.049,51.52,118.237,58,118.4l.189,0H68.35a.614.614,0,0,0,.572-.463l2.192-10.305L73.307,97.33A.369.369,0,0,0,72.932,96.866Zm-50.207-.054H17.578a.623.623,0,0,0-.578.462l-.488,2.154-.488,2.154a.363.363,0,0,0,.369.462H21.58a.617.617,0,0,0,.575-.463l.471-2.153.471-2.153A.367.367,0,0,0,22.725,96.812Zm-1.493,6.705H16.043a.624.624,0,0,0-.578.462l-.729,3.228-.728,3.227-.2.925-.7,3.295-.7,3.3c-.054.254-.166.665-.25.911,0,0-.97,2.884-2.6,2.851l-.2,0-1.41-.026h0a.619.619,0,0,0-.581.452L6.823,124.4l-.537,2.261a.362.362,0,0,0,.362.466c.924.011,2.994.034,4.247.034,4.07,0,6.217-2.255,7.592-8.745l1.61-7.449,1.51-6.986a.367.367,0,0,0-.374-.46Zm95.538-1.746-.215-.889-.212-.91-.108-.459c-.422-1.639-1.659-2.583-4.346-2.583l-4.182,0-3.852-.006H99.521a.613.613,0,0,0-.571.463l-.192.905-.226,1.069-.063.3L96.517,108.8l-1.853,8.678a2.026,2.026,0,0,0-.042.694c.031.128.531.232.791.232h3.91a2.453,2.453,0,0,0,.732-.1c.142-.058.352-.569.4-.823l.694-3.438.7-3.439v-.006l.093-.458.843-3.949.744-3.488a.615.615,0,0,1,.571-.463l12.3-.006a.358.358,0,0,0,.366-.459Zm15.837-8.032-.947,0h-3.937a1,1,0,0,0-.74.392l-8.708,12.756c-.146.215-.314.184-.372-.069l-.641-2.81a.623.623,0,0,0-.579-.462h-5.6a.338.338,0,0,0-.344.454l2.508,8.788a2.084,2.084,0,0,1,.012.914l-1.093,4.252a.349.349,0,0,0,.355.458h5.533a.644.644,0,0,0,.59-.458l1.094-4.252a2.8,2.8,0,0,1,.4-.838L134.28,94.106c.158-.209.072-.378-.187-.376Zm-44.471,11v0a.57.57,0,0,1-.554.489h-7.1a.3.3,0,0,1-.334-.373l.007-.017,0,0,0-.023.032-.121c.678-1.8,2.058-2.984,4.653-2.984,2.922,0,3.492,1.426,3.294,3.031Zm-2.082-8.192c-9.109,0-11.268,5.529-12.48,11.111-1.21,5.689-1.107,11.006,8.32,11.006h1.493l1.132,0h.02c2.489-.01,4.987-.029,6-.037a.614.614,0,0,0,.565-.466l.382-1.865.074-.363.455-2.225a.372.372,0,0,0-.378-.464H83.159c-3.371,0-4.372-.9-4-3.529H92.711a.558.558,0,0,0,.494-.349l.032-.118h0C95.247,101.662,94.67,96.552,86.053,96.551ZM43,104.714l-.129.454h0l-1.023,3.626-1.023,3.624a.661.661,0,0,1-.6.456H34.807c-4.107,0-5.108-3.213-4.107-7.95,1-4.846,2.96-7.858,7-8.163,5.525-.417,6.63,3.468,5.3,7.952Zm3.714,7.882a60.713,60.713,0,0,0,3.132-9.778c.791-4.791-1.609-11.743-10.877-11.743-9.215,0-13.217,6.635-14.744,13.85-1.527,7.267.474,13.638,9.636,13.586l7.229-.027,6.755-.024a.654.654,0,0,0,.592-.459l1.177-4.489a.351.351,0,0,0-.354-.462l-1.128-.007L47,113.037a.289.289,0,0,1-.321-.335Zm45.618-4.15a.311.311,0,1,1-.311-.31A.311.311,0,0,1,92.33,108.446Z" transform="translate(-6.274 8.151)"/></g></svg>