<svg xmlns="http://www.w3.org/2000/svg" viewBox="0 0 151.926 135.297"><defs><style>.a{fill:#4a4a4a;}.b{fill:#61dafb;}</style></defs><g transform="translate(0)"><path class="a" d="M327.626,145.664c0-10.064-12.6-19.6-31.927-25.517,4.459-19.7,2.477-35.365-6.255-40.382a13.577,13.577,0,0,0-6.937-1.734v6.906a7.171,7.171,0,0,1,3.53.805c4.212,2.415,6.039,11.613,4.614,23.442-.341,2.911-.9,5.977-1.579,9.1a150.078,150.078,0,0,0-19.664-3.375A151.059,151.059,0,0,0,256.525,99.43c10.1-9.383,19.571-14.524,26.013-14.524V78h0c-8.516,0-19.664,6.07-30.937,16.6-11.272-10.467-22.42-16.475-30.937-16.475V85.03c6.41,0,15.917,5.11,26.013,14.431a146.262,146.262,0,0,0-12.79,15.453,144.612,144.612,0,0,0-19.7,3.406c-.712-3.1-1.239-6.1-1.61-8.981-1.455-11.83.341-21.027,4.521-23.473a6.892,6.892,0,0,1,3.561-.805V78.155h0a13.808,13.808,0,0,0-7,1.734c-8.7,5.017-10.653,20.655-6.163,40.289-19.262,5.946-31.8,15.453-31.8,25.486,0,10.064,12.6,19.6,31.927,25.517-4.459,19.7-2.477,35.365,6.255,40.382a13.613,13.613,0,0,0,6.968,1.734c8.516,0,19.664-6.07,30.937-16.6,11.272,10.467,22.42,16.475,30.937,16.475a13.808,13.808,0,0,0,7-1.734c8.7-5.017,10.653-20.655,6.163-40.289C315.085,165.235,327.626,155.7,327.626,145.664Zm-40.32-20.655c-1.146,3.995-2.57,8.113-4.181,12.232-1.27-2.477-2.6-4.955-4.057-7.432-1.425-2.477-2.942-4.893-4.459-7.246C279.008,123.213,283.25,124.018,287.307,125.009Zm-14.183,32.98c-2.415,4.181-4.893,8.144-7.463,11.83-4.614.4-9.29.619-14,.619-4.676,0-9.352-.217-13.935-.588q-3.855-5.528-7.494-11.768-3.53-6.085-6.441-12.325c1.92-4.15,4.088-8.3,6.41-12.356,2.415-4.181,4.893-8.144,7.463-11.83,4.614-.4,9.29-.619,14-.619,4.676,0,9.352.217,13.935.588q3.855,5.528,7.494,11.768,3.53,6.085,6.441,12.325C277.583,149.783,275.446,153.932,273.124,157.989Zm10-4.026c1.672,4.15,3.1,8.3,4.273,12.325-4.057.991-8.33,1.827-12.759,2.477,1.517-2.385,3.035-4.831,4.459-7.339C280.525,158.949,281.857,156.441,283.126,153.963Zm-31.4,33.042a127.667,127.667,0,0,1-8.609-9.91c2.787.124,5.636.217,8.516.217,2.911,0,5.791-.062,8.609-.217A120.881,120.881,0,0,1,251.725,187.006Zm-23.04-18.24c-4.4-.65-8.64-1.455-12.7-2.446,1.146-3.995,2.57-8.113,4.181-12.232,1.27,2.477,2.6,4.955,4.057,7.432S227.168,166.412,228.685,168.766Zm22.885-64.443a127.665,127.665,0,0,1,8.609,9.91c-2.787-.124-5.636-.217-8.516-.217-2.911,0-5.791.062-8.609.217A120.876,120.876,0,0,1,251.57,104.322Zm-22.916,18.24c-1.517,2.384-3.035,4.831-4.459,7.339-1.424,2.477-2.756,4.955-4.026,7.432-1.672-4.15-3.1-8.3-4.273-12.325C219.953,124.049,224.226,123.213,228.654,122.562Zm-28.026,38.771c-10.963-4.676-18.054-10.808-18.054-15.67s7.092-11.024,18.054-15.67c2.663-1.146,5.574-2.168,8.578-3.128a148.731,148.731,0,0,0,6.968,18.859,146.633,146.633,0,0,0-6.875,18.766C206.234,163.532,203.323,162.479,200.629,161.333Zm16.66,44.253c-4.212-2.415-6.039-11.613-4.614-23.442.341-2.911.9-5.977,1.579-9.1a150.077,150.077,0,0,0,19.664,3.375A151.061,151.061,0,0,0,246.8,191.9c-10.1,9.383-19.571,14.524-26.013,14.524A7.39,7.39,0,0,1,217.289,205.586Zm73.455-23.6c1.456,11.83-.341,21.027-4.521,23.473a6.892,6.892,0,0,1-3.561.805c-6.41,0-15.917-5.11-26.013-14.431a146.265,146.265,0,0,0,12.79-15.453,144.606,144.606,0,0,0,19.7-3.406A86.7,86.7,0,0,1,290.744,181.989Zm11.922-20.655c-2.663,1.146-5.574,2.168-8.578,3.128a148.725,148.725,0,0,0-6.968-18.859A146.63,146.63,0,0,0,294,126.836c3.066.96,5.977,2.013,8.7,3.159,10.963,4.676,18.054,10.808,18.054,15.67C320.721,150.526,313.629,156.688,302.667,161.333Z" transform="translate(-175.7 -78)"/><path class="b" d="M320.8,78.4Z" transform="translate(-275.866 -78.276)"/><circle class="a" cx="14.152" cy="14.152" r="14.152" transform="translate(61.78 53.512)"/><path class="b" d="M520.5,78.1Z" transform="translate(-413.724 -78.069)"/></g></svg>