<svg xmlns="http://www.w3.org/2000/svg" width="317.909" height="301.796" viewBox="0 0 317.909 301.796">
  <g id="redux-logo" transform="translate(-11.15 -13.3)">
    <path id="Path_245" data-name="Path 245" d="M231.428,118.392A22.723,22.723,0,0,0,229,73.082h-.809a22.634,22.634,0,0,0-21.846,23.464,23.232,23.232,0,0,0,6.473,14.968c-13.755,27.105-34.792,46.928-66.347,63.515C125.03,186.357,102.78,190.4,80.53,187.571c-18.2-2.427-32.364-10.518-41.264-23.869C26.32,143.879,25.106,122.438,36.029,101c7.687-15.373,19.823-26.7,27.51-32.364C61.92,63.373,59.493,54.473,58.279,48-.381,90.478,5.687,147.925,23.488,175.03,36.838,195.257,63.943,207.8,93.88,207.8a99.453,99.453,0,0,0,24.273-2.832C169.936,194.853,209.177,164.107,231.428,118.392Z" transform="translate(0 105.68)" fill="#4a4a4a"/>
    <path id="Path_246" data-name="Path 246" d="M216.3,104.165C185.553,68.16,140.243,48.337,88.46,48.337H81.987A22.23,22.23,0,0,0,62.164,36.2h-.809a22.662,22.662,0,0,0,.809,45.31h.809A22.789,22.789,0,0,0,82.8,67.755h7.282c30.746,0,59.874,8.9,86.17,26.3,20.228,13.35,34.792,30.746,42.883,51.783,6.877,16.991,6.473,33.578-.809,47.737-11.328,21.441-30.341,33.173-55.424,33.173a103.469,103.469,0,0,1-39.646-8.5c-4.45,4.046-12.541,10.518-18.2,14.564,17.4,8.091,35.2,12.541,52.187,12.541,38.837,0,67.56-21.441,78.483-42.883,11.732-23.464,10.923-63.919-19.419-98.306Z" transform="translate(86.33 69.743)" fill="#4a4a4a"/>
    <path id="Path_247" data-name="Path 247" d="M49.311,230.949A22.724,22.724,0,0,0,71.966,252.8h.809a22.662,22.662,0,0,0-.809-45.31h-.809a6.885,6.885,0,0,0-2.832.4c-16.587-27.51-23.464-57.447-21.037-89.811C48.907,93.806,57,72.769,71.157,55.373c11.732-14.968,34.387-22.25,49.76-22.655,42.883-.809,61.087,52.592,62.3,74.033,5.259,1.214,14.159,4.046,20.228,6.068C198.591,47.282,158.136,13.3,119.3,13.3c-36.41,0-69.988,26.3-83.338,65.133-18.609,51.783-6.473,101.543,16.182,140.784a18.174,18.174,0,0,0-2.832,11.732Z" transform="translate(47.805 0)" fill="#4a4a4a"/>
  </g>
</svg>
