<svg xmlns="http://www.w3.org/2000/svg" viewBox="0 0 141 141"><defs><style>.a{fill:#5a5a5a;}.b{fill:#4a4a4a;}.c{fill:#444;}</style></defs><path class="a" d="M87.3,280.262H4.131a4.131,4.131,0,0,1,0-8.262H87.3a4.131,4.131,0,0,1,0,8.262Zm0,0" transform="translate(0 -197.094)"/><path class="b" d="M87.3,99.691H12.393A12.407,12.407,0,0,1,0,87.3V12.393A12.407,12.407,0,0,1,12.393,0h99.691a12.407,12.407,0,0,1,12.393,12.393V54.252a4.131,4.131,0,1,1-8.262,0V12.393a4.136,4.136,0,0,0-4.131-4.131H12.393a4.136,4.136,0,0,0-4.131,4.131V87.3a4.136,4.136,0,0,0,4.131,4.131H87.3a4.131,4.131,0,1,1,0,8.262Zm0,0"/><path class="a" d="M355.7,250.262h-49.57a4.131,4.131,0,0,1,0-8.262H355.7a4.131,4.131,0,0,1,0,8.262Zm0,0" transform="translate(-218.832 -175.355)"/><path class="a" d="M355.7,430.262h-49.57a4.131,4.131,0,0,1,0-8.262H355.7a4.131,4.131,0,0,1,0,8.262Zm0,0" transform="translate(-218.832 -305.785)"/><path class="c" d="M201.205,356.785H184.131A4.131,4.131,0,0,1,180,352.654V336.131A4.131,4.131,0,0,1,184.131,332h17.074a4.131,4.131,0,0,1,4.131,4.131v16.523A4.131,4.131,0,0,1,201.205,356.785Zm-12.943-8.262h8.813v-8.262h-8.812Zm0,0" transform="translate(-130.43 -240.57)"/><path class="a" d="M174.252,400.262H124.131a4.131,4.131,0,0,1,0-8.262h50.121a4.131,4.131,0,1,1,0,8.262Zm0,0" transform="translate(-86.953 -284.047)"/><path class="c" d="M347.439,272.879H314.393A12.407,12.407,0,0,1,302,260.486V194.393A12.407,12.407,0,0,1,314.393,182h33.047a12.407,12.407,0,0,1,12.393,12.393v66.094A12.407,12.407,0,0,1,347.439,272.879Zm-33.047-82.617a4.136,4.136,0,0,0-4.131,4.131v66.094a4.136,4.136,0,0,0,4.131,4.131h33.047a4.136,4.136,0,0,0,4.131-4.131V194.393a4.136,4.136,0,0,0-4.131-4.131Zm0,0" transform="translate(-218.832 -131.879)"/></svg>