<svg xmlns="http://www.w3.org/2000/svg" viewBox="0 0 174.481 130.851"><defs><style>.a{fill:#4a4a4a;}</style></defs><path class="a" d="M150.216,75.195a36.124,36.124,0,0,0-15.807,3.665c-1.625-3.219-3.251-6.087-3.538-8.191a21.994,21.994,0,0,1-.319-6.884c.382-2.932,2.1-7.107,2.072-7.426s-.382-1.817-3.888-1.848-6.533.669-6.884,1.593a38.456,38.456,0,0,0-1.466,5.195c-.606,3.187-7.011,14.564-10.676,20.524a22.138,22.138,0,0,1-2.422-5.992,21.994,21.994,0,0,1-.319-6.884c.382-2.932,2.1-7.107,2.072-7.426s-.382-1.817-3.888-1.848-6.533.669-6.884,1.593-.733,3.091-1.466,5.195S87.56,87.56,85.329,92.468c-1.147,2.518-2.135,4.526-2.836,5.9h0a1.454,1.454,0,0,1-.127.255c-.606,1.179-.956,1.817-.956,1.817v.032c-.478.86-.988,1.657-1.243,1.657-.191,0-.542-2.295.064-5.418,1.275-6.6,4.3-16.859,4.271-17.21,0-.191.574-1.976-1.976-2.9a3.164,3.164,0,0,0-3.6.606c-.223,0-.382.542-.382.542s2.773-11.537-5.29-11.537c-5.035,0-11.983,5.513-15.425,10.485-2.167,1.179-6.788,3.7-11.728,6.406-1.88,1.052-3.824,2.1-5.641,3.091-.127-.127-.255-.287-.382-.414C30.322,75.354,12.284,67.992,13.049,54c.287-5.1,2.04-18.484,34.642-34.738C74.525,6.037,95.878,9.7,99.575,17.829c5.29,11.6-11.441,33.144-39.168,36.268-10.581,1.179-16.126-2.9-17.528-4.43-1.466-1.593-1.689-1.689-2.231-1.37-.892.478-.319,1.912,0,2.741.829,2.167,4.239,5.992,10.007,7.872,5.1,1.657,17.5,2.581,32.507-3.219,16.8-6.5,29.926-24.572,26.069-39.71C105.375.619,79.879-4.448,55.754,4.125c-14.341,5.1-29.894,13.13-41.08,23.584C1.384,40.138-.719,50.942.141,55.467c3.091,16.062,25.241,26.516,34.1,34.26-.446.255-.86.478-1.211.669C28.6,92.6,11.71,101.423,7.5,110.761c-4.78,10.581.765,18.166,4.43,19.186,11.377,3.155,23.074-2.518,29.352-11.887S46.8,96.515,43.9,90.938a.667.667,0,0,0-.127-.191c1.147-.669,2.326-1.37,3.474-2.04,2.263-1.339,4.494-2.581,6.406-3.6a42,42,0,0,0-2.263,11.6c-.478,5.992,1.976,13.768,5.195,16.827a5.74,5.74,0,0,0,4.207,1.37c3.761,0,5.45-3.123,7.33-6.82,2.295-4.525,4.366-9.784,4.366-9.784s-2.581,14.214,4.43,14.214c2.55,0,5.131-3.314,6.278-5v.032s.064-.1.191-.319c.255-.414.414-.669.414-.669v-.064c1.02-1.785,3.314-5.832,6.725-12.557,4.4-8.669,8.637-19.5,8.637-19.5a55.388,55.388,0,0,0,1.689,7.043,66.321,66.321,0,0,0,3.633,8.159c-1.02,1.434-1.657,2.231-1.657,2.231l.032.032c-.829,1.084-1.721,2.263-2.709,3.41-3.474,4.143-7.617,8.892-8.191,10.262-.669,1.625-.51,2.8.765,3.761.924.7,2.581.8,4.271.7a19.611,19.611,0,0,0,6.406-1.466,21.5,21.5,0,0,0,5.513-2.9,12.338,12.338,0,0,0,5.29-10.868,21.942,21.942,0,0,0-2.008-7.681c.319-.446.606-.892.924-1.339a145.993,145.993,0,0,0,9.561-16.509,55.389,55.389,0,0,0,1.689,7.043,47.177,47.177,0,0,0,3.091,7.011c-5.067,4.111-8.191,8.892-9.306,12.015-2.008,5.8-.446,8.414,2.518,9.019,1.339.287,3.251-.351,4.653-.956a21.194,21.194,0,0,0,5.9-3.028c3.41-2.518,6.693-6.023,6.5-10.772a20.364,20.364,0,0,0-1.466-6.374,33.377,33.377,0,0,1,16.923-1.944c15.17,1.785,18.166,11.25,17.592,15.234s-3.761,6.151-4.812,6.82-1.4.892-1.307,1.37c.127.7.637.669,1.53.542,1.243-.223,7.967-3.219,8.254-10.549C174.915,85.329,165.991,75.1,150.216,75.195ZM33.19,114.649c-5.035,5.482-12.047,7.553-15.074,5.8-3.251-1.88-1.976-9.975,4.207-15.776a80.287,80.287,0,0,1,11.824-8.828c.733-.446,1.817-1.084,3.123-1.88.223-.127.351-.191.351-.191h0l.765-.478A21.767,21.767,0,0,1,33.19,114.649Zm36.65-24.922c-1.753,4.271-5.418,15.2-7.649,14.6-1.912-.51-3.091-8.8-.382-16.987a38.59,38.59,0,0,1,5.96-10.931c2.741-3.059,5.768-4.079,6.5-2.836C75.195,75.195,70.924,87.05,69.841,89.727ZM100.085,104.2c-.733.382-1.434.637-1.753.446-.223-.127.319-.637.319-.637s3.792-4.079,5.29-5.928c.86-1.084,1.88-2.358,2.964-3.792V94.7C106.9,99.575,102.188,102.857,100.085,104.2Zm23.329-5.322c-.542-.382-.446-1.657,1.37-5.641a21.234,21.234,0,0,1,5.195-6.693,9.022,9.022,0,0,1,.51,2.932C130.457,95.623,126.059,97.918,123.413,98.874Z" transform="translate(0.026 0.026)"/></svg>