<svg xmlns="http://www.w3.org/2000/svg" width="181.34" height="181.341" viewBox="0 0 181.34 181.341"><defs><style>.a{fill:#857e75;}.b{fill:#fff;}.c{fill:#dadeea;}.d{fill:#4a4a4a;}.e{fill:#252527;}.f{fill:#e18712;}</style></defs><g transform="translate(2.015 2.017)"><path class="a" d="M154.214,116.685V24H9.142v92.685l-.282.2a88.655,88.655,0,0,0,145.636,0Z" transform="translate(6.977 22.341)"/><ellipse class="b" cx="4.03" cy="4.03" rx="4.03" ry="4.03" transform="translate(40.298 30.222)"/><ellipse class="b" cx="4.03" cy="4.03" rx="4.03" ry="4.03" transform="translate(24.179 30.222)"/><path class="b" d="M94.194,28.119v8.06H68V12H90.164a4.042,4.042,0,0,1,4.03,4.03Z" transform="translate(66.998 10.162)"/><path class="c" d="M127.879,12V36.179H9V16.03A4.042,4.042,0,0,1,13.03,12ZM41.238,24.089a4.03,4.03,0,1,0-4.03,4.03,4.03,4.03,0,0,0,4.03-4.03Zm-16.119,0a4.03,4.03,0,1,0-4.03,4.03A4.03,4.03,0,0,0,25.119,24.089Z" transform="translate(7.119 10.162)"/><path class="d" d="M81.423,20a88.673,88.673,0,0,1-.141,100.946l-.282-.2V20Z" transform="translate(80.192 18.281)"/><path class="d" d="M17.119,28.364v92.685l-.282.2A88.667,88.667,0,0,1,17.119,19.7Z" transform="translate(-1 17.977)"/><path class="d" d="M132.864,22.982v.181H16v-.181a88.655,88.655,0,0,1,116.864,0Z" transform="translate(14.224 -1.001)"/></g><g transform="translate(0 0)"><path class="d" d="M13.06,63.989l4.816-4.816,7.274,4.513,2.337,1.451a23.385,23.385,0,0,1,5.138-2.116L35.223,52h8.06l2.6,11.021a23.384,23.384,0,0,1,5.138,2.116l9.611-5.964,5.7,5.7-5.964,9.611a23.385,23.385,0,0,1,2.116,5.138l11.021,2.6v8.06l-11.021,2.6a23.385,23.385,0,0,1-2.116,5.138l5.964,9.611-5.7,5.682-9.611-5.944a23.386,23.386,0,0,1-5.138,2.116l-1.632,6.931-.967,4.09h-8.06l-2.6-11.021a23.385,23.385,0,0,1-5.138-2.116l-9.611,5.944-5.7-5.682,5.964-9.611a23.385,23.385,0,0,1-2.116-5.138L5,90.283v-8.06l3.365-.786,7.657-1.813a23.384,23.384,0,0,1,2.116-5.138l-5.964-9.611ZM51.343,86.253A12.089,12.089,0,1,0,39.253,98.343,12.089,12.089,0,0,0,51.343,86.253Z" transform="translate(5.075 52.775)"/><ellipse class="b" cx="12.089" cy="12.089" rx="12.089" ry="12.089" transform="translate(32.239 126.939)"/><path class="d" d="M100.238,107.246l2.1,3.385-5.7,5.682-9.611-5.944a23.385,23.385,0,0,1-5.138,2.116l-2.6,11.021h-8.06l-.625-2.66-1.975-8.362a23.385,23.385,0,0,1-5.138-2.116l-9.611,5.944-5.7-5.682,5.964-9.611a23.386,23.386,0,0,1-2.116-5.138L41,93.283v-8.06l11.021-2.6a23.385,23.385,0,0,1,2.116-5.138l-5.964-9.611,5.7-5.7,9.611,5.964a23.385,23.385,0,0,1,5.138-2.116L71.223,55h8.06l2.6,11.021a23.385,23.385,0,0,1,5.138,2.116l9.611-5.964,5.7,5.7-5.964,9.611a23.385,23.385,0,0,1,2.116,5.138l11.021,2.6v8.06l-11.021,2.6a23.386,23.386,0,0,1-2.116,5.138Zm-12.9-17.993a12.089,12.089,0,1,0-12.089,12.089A12.089,12.089,0,0,0,87.343,89.253Z" transform="translate(41.611 55.819)"/><path class="b" d="M81.617,80.045l.181.2a89.159,89.159,0,0,1-9.45,7.717L68.48,81.737A23.386,23.386,0,0,0,70.6,76.6L81.617,74Z" transform="translate(69.5 75.102)"/><ellipse class="b" cx="12.089" cy="12.089" rx="12.089" ry="12.089" transform="translate(104.775 132.983)"/><path class="d" d="M85.39,96.247l1.975,8.362a87.245,87.245,0,0,1-21.539,2.66A88.309,88.309,0,0,1,24.742,97.194l-.262-.06L26.112,90.2a23.385,23.385,0,0,0,5.138-2.116l9.611,5.944,5.7-5.682L40.6,78.737A23.385,23.385,0,0,0,42.715,73.6L53.736,71h4.03v6.045l11.021,2.6A23.385,23.385,0,0,0,70.9,84.782l-5.964,9.611,5.7,5.682,9.611-5.944a23.385,23.385,0,0,0,5.138,2.116Z" transform="translate(24.845 72.058)"/><path class="d" d="M90.223,59.223H64.03A4.042,4.042,0,0,1,60,55.194V29Z" transform="translate(60.894 29.432)"/><path class="e" d="M67.387,111.611v2.015h-4.03v-8.06l-11.021-2.6a23.385,23.385,0,0,0-2.116-5.138l5.964-9.611-5.7-5.7L40.871,88.48a23.385,23.385,0,0,0-5.138-2.116l-2.6-11.021h-8.06l-2.6,11.021a23.385,23.385,0,0,0-5.138,2.116L15,87.029v-54A4.042,4.042,0,0,1,19.03,29h86.64V55.194a4.042,4.042,0,0,0,4.03,4.03h26.194v52.387l-11.021-2.6a23.385,23.385,0,0,0-2.116-5.138l5.964-9.611-5.7-5.7-9.611,5.964a23.385,23.385,0,0,0-5.138-2.116l-2.6-11.021h-8.06l-2.6,11.021a23.385,23.385,0,0,0-5.138,2.116L80.262,88.56l-5.7,5.7,5.964,9.611a23.386,23.386,0,0,0-2.116,5.138Z" transform="translate(15.224 29.432)"/><path class="f" d="M165.286,39.154l-.064.044V28.209a6.045,6.045,0,0,0-6.045-6.045h-9.127a90.622,90.622,0,0,0-118.758,0H22.164a6.045,6.045,0,0,0-6.045,6.045V39.077a90.5,90.5,0,0,0-5.672,93.763l-.832.2A2.015,2.015,0,0,0,8.06,135v8.06a2.015,2.015,0,0,0,1.553,1.963l9.9,2.333a25.287,25.287,0,0,0,1.38,3.361l-5.354,8.63a2.015,2.015,0,0,0,.29,2.488l5.7,5.682a2.015,2.015,0,0,0,2.48.286l8.634-5.335A25.709,25.709,0,0,0,36,163.847l2.333,9.9A2.015,2.015,0,0,0,40.3,175.3h8.06a2.015,2.015,0,0,0,1.96-1.551l.4-1.7a90.936,90.936,0,0,0,39.949,9.3,89.7,89.7,0,0,0,20.032-2.279l.169.725a2.015,2.015,0,0,0,1.963,1.553h8.06a2.015,2.015,0,0,0,1.963-1.553l2.333-9.9a25.71,25.71,0,0,0,3.363-1.382l8.632,5.335a2.015,2.015,0,0,0,2.48-.286l5.7-5.682a2.015,2.015,0,0,0,.292-2.486l-1.136-1.832A90.606,90.606,0,0,0,165.276,39.154ZM177.311,90.67a86.058,86.058,0,0,1-12.089,44.156v-88.3A86.141,86.141,0,0,1,177.311,90.67ZM161.192,28.209V46.343H139.028V26.194h20.149A2.015,2.015,0,0,1,161.192,28.209ZM90.67,4.03a86.547,86.547,0,0,1,53.014,18.135H37.658A86.546,86.546,0,0,1,90.67,4.03ZM22.164,26.194H135V46.343H20.149V28.209A2.015,2.015,0,0,1,22.164,26.194ZM4.03,90.67A86.006,86.006,0,0,1,16.119,46.5v69.425l-.294.3a2.015,2.015,0,0,0-.29,2.488l5.354,8.63a25.313,25.313,0,0,0-1.38,3.363l-5.015,1.183A86.568,86.568,0,0,1,4.03,90.67Zm42.734,80.6h-4.87l-2.232-9.47a2.015,2.015,0,0,0-1.41-1.479,21.335,21.335,0,0,1-4.7-1.932,2.015,2.015,0,0,0-2.043.044l-8.261,5.106-3.441-3.425,5.12-8.261a2.015,2.015,0,0,0,.046-2.047,21.334,21.334,0,0,1-1.932-4.7,2.015,2.015,0,0,0-1.479-1.41l-9.474-2.233V136.6l9.47-2.239a2.015,2.015,0,0,0,1.477-1.41,21.334,21.334,0,0,1,1.932-4.7,2.015,2.015,0,0,0-.046-2.047l-5.12-8.261,3.441-3.445,8.261,5.122a2.015,2.015,0,0,0,2.047.046,21.333,21.333,0,0,1,4.7-1.932,2.015,2.015,0,0,0,1.41-1.479l2.235-9.466h4.868l2.233,9.47a2.015,2.015,0,0,0,1.41,1.479,21.334,21.334,0,0,1,4.7,1.932,2.015,2.015,0,0,0,2.047-.046L65.41,114.5l3.443,3.443-5.122,8.261a2.015,2.015,0,0,0-.046,2.047,21.334,21.334,0,0,1,1.932,4.7,2.015,2.015,0,0,0,1.479,1.41l9.47,2.232v4.868l-9.47,2.232a2.015,2.015,0,0,0-1.479,1.41,21.334,21.334,0,0,1-1.932,4.7,2.015,2.015,0,0,0,.046,2.047l5.12,8.261-3.441,3.425-8.261-5.106a2.015,2.015,0,0,0-2.043-.044,21.334,21.334,0,0,1-4.7,1.932A2.015,2.015,0,0,0,49,161.8ZM122.909,63.3l23.345,23.345h-21.33a2.015,2.015,0,0,1-2.015-2.015Zm2.015,27.374H149.1V138.5l-7.419-1.749a25.286,25.286,0,0,0-1.38-3.361l5.354-8.63a2.015,2.015,0,0,0-.288-2.486l-5.7-5.7a2.015,2.015,0,0,0-2.486-.288l-8.63,5.354a25.287,25.287,0,0,0-3.361-1.38l-2.333-9.9a2.015,2.015,0,0,0-1.963-1.553h-8.06a2.015,2.015,0,0,0-1.963,1.553l-2.333,9.9a25.289,25.289,0,0,0-3.361,1.38l-8.63-5.354a2.015,2.015,0,0,0-2.486.288l-5.7,5.7a2.015,2.015,0,0,0-.288,2.486l5.354,8.63a25.288,25.288,0,0,0-1.38,3.361l-9.9,2.333a2.015,2.015,0,0,0-1.553,1.963V135a2.015,2.015,0,0,0-1.553-1.963l-9.9-2.333a25.287,25.287,0,0,0-1.38-3.361l5.354-8.63a2.015,2.015,0,0,0-.288-2.486l-5.7-5.7a2.015,2.015,0,0,0-2.486-.288l-8.63,5.354a25.286,25.286,0,0,0-3.361-1.38l-2.333-9.9a2.015,2.015,0,0,0-1.963-1.553H40.3a2.015,2.015,0,0,0-1.963,1.553L36,114.208a25.288,25.288,0,0,0-3.361,1.38l-.4-.25V62.462a2.015,2.015,0,0,1,2.015-2.015h84.626V84.626a6.045,6.045,0,0,0,6.045,6.045ZM90.67,177.311a86.86,86.86,0,0,1-39-9.289l.985-4.175a25.592,25.592,0,0,0,3.363-1.382l8.632,5.335a2.015,2.015,0,0,0,2.48-.286l5.7-5.682a2.015,2.015,0,0,0,.29-2.488l-5.354-8.63a25.286,25.286,0,0,0,1.38-3.361l9.9-2.333a2.015,2.015,0,0,0,1.553-1.963V149.1a2.015,2.015,0,0,0,1.553,1.963l9.9,2.333a25.288,25.288,0,0,0,1.38,3.361l-5.354,8.63a2.015,2.015,0,0,0,.29,2.488l5.7,5.682a2.015,2.015,0,0,0,2.48.286l8.634-5.335a25.349,25.349,0,0,0,3.365,1.382l1.237,5.249a85.669,85.669,0,0,1-19.109,2.17Zm47.277-7.729-8.261-5.106a2.015,2.015,0,0,0-2.043-.044,21.333,21.333,0,0,1-4.7,1.932,2.015,2.015,0,0,0-1.41,1.479l-2.239,9.468h-4.866l-2.235-9.47a2.015,2.015,0,0,0-1.41-1.479,21.333,21.333,0,0,1-4.7-1.932,2.015,2.015,0,0,0-2.043.044l-8.261,5.106-3.441-3.425,5.12-8.261a2.015,2.015,0,0,0,.046-2.047,21.332,21.332,0,0,1-1.932-4.7,2.015,2.015,0,0,0-1.479-1.41l-9.474-2.233v-4.868l9.47-2.232A2.015,2.015,0,0,0,95.575,139a21.335,21.335,0,0,1,1.932-4.7,2.015,2.015,0,0,0-.046-2.047l-5.122-8.261,3.443-3.443,8.261,5.122a2.015,2.015,0,0,0,2.047.046,21.335,21.335,0,0,1,4.7-1.932,2.015,2.015,0,0,0,1.41-1.479l2.232-9.47H119.3l2.233,9.47a2.015,2.015,0,0,0,1.41,1.479,21.334,21.334,0,0,1,4.7,1.932,2.015,2.015,0,0,0,2.047-.046l8.261-5.122,3.443,3.443-5.122,8.261a2.015,2.015,0,0,0-.046,2.047,21.335,21.335,0,0,1,1.932,4.7,2.015,2.015,0,0,0,1.479,1.41l9.47,2.232v4.868l-9.47,2.233a2.015,2.015,0,0,0-1.479,1.41,21.334,21.334,0,0,1-1.932,4.7,2.015,2.015,0,0,0,.046,2.047l5.122,8.251Zm2.355-12.823a25.388,25.388,0,0,0,1.38-3.361l7.419-1.749v2.946a84.848,84.848,0,0,1-6.714,5.525Zm12.829-6.045V88.655a2.015,2.015,0,0,0-.59-1.424L122.318,57.008a2.015,2.015,0,0,0-1.425-.59H34.253a6.045,6.045,0,0,0-6.045,6.045v50.372l-4.2-2.6a2.015,2.015,0,0,0-2.486.288L20.149,111.9V50.372H161.192v90.594A87.492,87.492,0,0,1,153.132,150.714Z" transform="translate(0 0)"/><path class="d" d="M18.045,27.089A6.045,6.045,0,1,0,12,21.045,6.045,6.045,0,0,0,18.045,27.089Zm0-8.06a2.015,2.015,0,1,1-2.015,2.015A2.015,2.015,0,0,1,18.045,19.03Z" transform="translate(12.179 15.224)"/><path class="d" d="M26.045,27.089A6.045,6.045,0,1,0,20,21.045,6.045,6.045,0,0,0,26.045,27.089Zm0-8.06a2.015,2.015,0,1,1-2.015,2.015A2.015,2.015,0,0,1,26.045,19.03Z" transform="translate(20.298 15.224)"/><rect class="d" width="10.074" height="4.03" transform="translate(145.073 30.224)"/><rect class="d" width="10.074" height="4.03" transform="translate(145.073 38.283)"/><path class="d" d="M43.209,76.1a14.1,14.1,0,1,0-14.1,14.1,14.1,14.1,0,0,0,14.1-14.1ZM29.1,86.179A10.074,10.074,0,1,1,39.179,76.1,10.074,10.074,0,0,1,29.1,86.179Z" transform="translate(15.224 62.924)"/><path class="d" d="M65.1,65a14.1,14.1,0,1,0,14.1,14.1A14.1,14.1,0,0,0,65.1,65Zm0,24.179A10.074,10.074,0,1,1,75.179,79.1,10.074,10.074,0,0,1,65.1,89.179Z" transform="translate(51.76 65.968)"/><path class="d" d="M31.2,42.353l-8.06-8.06-2.849,2.849,6.635,6.635-6.635,6.635,2.849,2.849L31.2,45.2A2.015,2.015,0,0,0,31.2,42.353Z" transform="translate(20.596 34.804)"/><rect class="d" width="12.089" height="4.03" transform="translate(52.388 84.626)"/></g></svg>