<svg xmlns="http://www.w3.org/2000/svg" width="181.342" height="181.339" viewBox="0 0 181.342 181.339"><defs><style>.a{fill:#252527;}.b{fill:#fff;}.c{fill:#dadeea;}.d{fill:#4a4a4a;}.e{fill:#e18712;}</style></defs><path class="a" d="M117.715,36v92.443a88.673,88.673,0,0,1-96.715,0V36Z" transform="translate(21.317 36.536)"/><path class="b" d="M118.67,34.558v94.579a85.364,85.364,0,0,1-8.06,5.924V42.617H28L30.6,31.6a23.386,23.386,0,0,0,5.138-2.116l9.611,5.944.866-.866Z" transform="translate(28.421 29.919)"/><path class="b" d="M28.505,31.6l2.6,11.021H25.06V135.06A85.36,85.36,0,0,1,17,129.137V33.409l6.367-3.929A23.385,23.385,0,0,0,28.505,31.6Z" transform="translate(17.257 29.919)"/><path class="c" d="M41.111,36.119H65.29a4.03,4.03,0,0,0,0-8.06H37.081l-.161-.081a22.423,22.423,0,0,0,1.229-3.365l11.021-2.6V20H97.528a12.089,12.089,0,0,1,12.089,12.089V44.179H37.162L42,39.363l-1.693-2.74Z" transform="translate(37.474 20.298)"/><path class="d" d="M65.736,24.041a4.03,4.03,0,1,1,0,8.06H41.558l-.806.5L36.48,25.733c.322-.584.625-1.169.887-1.773l.161.081Z" transform="translate(37.027 24.317)"/><ellipse class="b" cx="12.089" cy="12.089" rx="12.089" ry="12.089" transform="translate(40.302 26.194)"/><path class="d" d="M77.506,38.268v2.015l-11.021,2.6a22.425,22.425,0,0,1-1.229,3.365c-.262.6-.564,1.189-.887,1.773l4.272,6.871,1.693,2.74L65.5,62.447l-.866.866L55.02,57.369a23.385,23.385,0,0,1-5.138,2.116l-2.6,11.021h-8.06l-2.6-11.021a23.385,23.385,0,0,1-5.138-2.116L25.119,61.3l-3.244,2.015-5.7-5.682,5.964-9.611a23.385,23.385,0,0,1-2.116-5.138L9,40.283v-8.06l11.021-2.6a23.385,23.385,0,0,1,2.116-5.138l-5.964-9.611,5.7-5.7,9.611,5.964a23.385,23.385,0,0,1,5.138-2.116L39.223,2h8.06L48.29,6.272l1.592,6.75a23.385,23.385,0,0,1,5.138,2.116l9.611-5.964,5.7,5.7-5.964,9.611a23.384,23.384,0,0,1,2.116,5.138l11.021,2.6ZM55.343,36.253A12.089,12.089,0,1,0,43.253,48.343,12.089,12.089,0,0,0,55.343,36.253Z" transform="translate(9.138 2.03)"/><path class="d" d="M61.746,1a88.655,88.655,0,0,1,56.417,157.041V51.372a12.089,12.089,0,0,0-12.089-12.089H57.716V33.238l-11.021-2.6A23.385,23.385,0,0,0,44.579,25.5l5.964-9.611-5.7-5.7L35.23,16.152a23.385,23.385,0,0,0-5.138-2.116L28.5,7.287l1.007-.242A88.335,88.335,0,0,1,61.746,1Z" transform="translate(28.929 1.015)"/><path class="d" d="M33.241,43.335v95.728A88.655,88.655,0,0,1,17.121,19.7v2.619l11.021,2.6a23.385,23.385,0,0,0,2.116,5.138l-5.964,9.611L30,45.35Z" transform="translate(1.017 19.993)"/><path class="e" d="M90.672,0A90.158,90.158,0,0,0,58.893,5.749l-.514-2.18a2.015,2.015,0,0,0-1.96-1.553H48.36A2.015,2.015,0,0,0,46.4,3.568l-2.333,9.9A25.258,25.258,0,0,0,40.7,14.846L32.073,9.49a2.015,2.015,0,0,0-2.486.288l-5.7,5.7a2.015,2.015,0,0,0-.288,2.486l5.356,8.63a25.259,25.259,0,0,0-1.382,3.363l-9.9,2.333a2.015,2.015,0,0,0-1.553,1.96v4.824A90.65,90.65,0,0,0,32.97,160.607a87.679,87.679,0,0,0,8.243,6.059,90.684,90.684,0,0,0,98.911,0,87.545,87.545,0,0,0,8.249-6.061A90.67,90.67,0,0,0,90.672,0ZM20.151,35.849l9.47-2.235A2.015,2.015,0,0,0,31.1,32.2a21.273,21.273,0,0,1,1.932-4.693,2.015,2.015,0,0,0-.044-2.051L27.864,17.2l3.443-3.443,8.261,5.122a2.015,2.015,0,0,0,2.051.044,21.273,21.273,0,0,1,4.693-1.932,2.015,2.015,0,0,0,1.41-1.477l2.232-9.468h4.868l2.235,9.47a2.015,2.015,0,0,0,1.41,1.477,21.273,21.273,0,0,1,4.693,1.932,2.015,2.015,0,0,0,2.051-.044l8.261-5.122L76.917,17.2l-5.122,8.261a2.015,2.015,0,0,0-.044,2.051,21.273,21.273,0,0,1,1.932,4.693,2.015,2.015,0,0,0,1.477,1.41l9.468,2.233v4.868l-9.47,2.235a2.015,2.015,0,0,0-1.477,1.41,20.288,20.288,0,0,1-1.118,3.063l-.02.044a16.976,16.976,0,0,1-.806,1.6,2.015,2.015,0,0,0,.054,2.039l5.12,8.247L73.467,62.78l-8.261-5.108a2.015,2.015,0,0,0-2.049-.042,21.273,21.273,0,0,1-4.693,1.932,2.015,2.015,0,0,0-1.41,1.477l-2.23,9.482H49.955l-2.235-9.47a2.015,2.015,0,0,0-1.41-1.477,21.273,21.273,0,0,1-4.693-1.932,2.029,2.029,0,0,0-2.047.042L31.31,62.79l-3.437-3.425,5.12-8.251a2.015,2.015,0,0,0,.044-2.051A21.273,21.273,0,0,1,31.1,44.37a2.015,2.015,0,0,0-1.477-1.41l-9.476-2.243ZM78.583,54.4l-2.5-4.03h26.683a2.015,2.015,0,0,1,0,4.03ZM42.315,70.521A2.015,2.015,0,0,0,40.3,72.536v88.6q-2.049-1.467-4.03-3.065V64.461L40.7,61.72A25.309,25.309,0,0,0,44.07,63.1l1.745,7.419ZM4.032,90.67a86,86,0,0,1,13.5-46.453c.048.014.085.044.135.056l9.9,2.333a25.259,25.259,0,0,0,1.382,3.363L23.6,58.6a2.015,2.015,0,0,0,.29,2.488l5.7,5.684a2.015,2.015,0,0,0,2.486.284l.165-.1v87.668A86.374,86.374,0,0,1,4.032,90.67Zm40.3,73.173V74.551H56.419A2.015,2.015,0,0,0,58.38,73l2.333-9.9a25.388,25.388,0,0,0,3.365-1.382l8.63,5.337a2.015,2.015,0,0,0,2.484-.29l5.7-5.68a2.015,2.015,0,0,0,.292-2.486l-.107-.169h21.684a6.045,6.045,0,1,0,0-12.089H78.331L87.1,44.273a2.015,2.015,0,0,0,1.553-1.96H135a10.087,10.087,0,0,1,10.074,10.074V62.462H82.613v4.03h62.462v91.583q-1.977,1.6-4.03,3.065v-88.6a2.015,2.015,0,0,0-2.015-2.015H62.464v4.03h74.551v89.292a86.467,86.467,0,0,1-92.685,0Zm104.774-9.22V52.387a14.12,14.12,0,0,0-14.1-14.1H88.657v-4.03a2.015,2.015,0,0,0-1.553-1.96l-9.9-2.333A25.256,25.256,0,0,0,75.827,26.6l5.356-8.63a2.015,2.015,0,0,0-.288-2.486l-5.7-5.7a2.015,2.015,0,0,0-2.486-.288l-8.63,5.356a25.259,25.259,0,0,0-3.363-1.382L59.824,9.7A86.64,86.64,0,0,1,149.1,154.623Z" transform="translate(0.002 0)"/><path class="d" d="M33.1,40.209A14.1,14.1,0,1,0,19,26.1a14.1,14.1,0,0,0,14.1,14.1Zm0-24.179A10.074,10.074,0,1,1,23.03,26.1,10.074,10.074,0,0,1,33.1,16.03Z" transform="translate(19.287 12.179)"/><path class="c" d="M43.694,52.293,29.59,66.4a2.015,2.015,0,0,0,0,2.849l14.1,14.1L46.543,80.5l-12.68-12.68,12.68-12.68Z" transform="translate(29.436 53.072)"/><rect class="c" width="36.325" height="4.03" transform="translate(80.71 138.354) rotate(-70.548)"/><path class="c" d="M69.246,66.4l-14.1-14.1-2.849,2.849,12.68,12.68L52.293,80.5l2.849,2.849,14.1-14.1A2.015,2.015,0,0,0,69.246,66.4Z" transform="translate(53.076 53.072)"/></svg>