<svg xmlns="http://www.w3.org/2000/svg" viewBox="0 0 194.992 194.998"><defs><style>.a{fill:#dadeea;}.b{fill:#5a5f7b;}.c{fill:#949fb5;}.d{fill:#fbb040;}.e{fill:#ffde17;}.f{fill:#e18712;}.g{fill:#f1f2f2;}.h{fill:#252527;}</style></defs><g transform="translate(0 0)"><path class="a" d="M66.455,132.248A44.306,44.306,0,1,1,89.411,88.905a41.377,41.377,0,0,1,.222,4.411,44.25,44.25,0,0,1-23.177,38.932Z" transform="translate(-0.999 57.357)"/><ellipse class="b" cx="4.432" cy="4.432" rx="4.432" ry="4.432" transform="translate(44.317 33.235)"/><ellipse class="b" cx="4.432" cy="4.432" rx="4.432" ry="4.432" transform="translate(26.59 33.235)"/><path class="a" d="M96.806,29.727V38.59H68V12H92.374a4.445,4.445,0,0,1,4.432,4.432Z" transform="translate(80.46 12.372)"/><path class="c" d="M139.733,12V38.59H9V16.432A4.445,4.445,0,0,1,13.432,12ZM44.453,25.295a4.432,4.432,0,1,0-4.432,4.432,4.432,4.432,0,0,0,4.432-4.432Zm-17.726,0a4.432,4.432,0,1,0-4.432,4.432A4.432,4.432,0,0,0,26.726,25.295Z" transform="translate(8.727 12.372)"/><rect class="d" width="11.079" height="8.863" transform="translate(139.597 99.71)"/><rect class="d" width="8.863" height="8.863" transform="translate(137.381 73.12)"/><rect class="d" width="8.863" height="8.863" transform="translate(119.654 73.12)"/><path class="e" d="M132,37.863v66.474a8.863,8.863,0,0,1-8.863,8.863H100.979V124.28S98.763,113.2,78.821,113.2H54.447l-.222.022A44.292,44.292,0,0,0,29.94,77.992l.133-.244V37.863A8.863,8.863,0,0,1,38.936,29h84.2A8.863,8.863,0,0,1,132,37.863ZM116.49,75.532V66.669H105.411v8.863Zm-4.432-26.59V40.079h-8.863v8.863Zm-17.726,0V40.079H85.468v8.863Z" transform="translate(34.186 33.041)"/><path class="f" d="M81.465,20a97.516,97.516,0,0,1-.155,111.012l-.31-.222V20Z" transform="translate(96.266 22.099)"/><path class="g" d="M168.538,125.927l.31.222a97.629,97.629,0,0,1-112.12,36.494,44.25,44.25,0,0,0,23.177-38.932,41.38,41.38,0,0,0-.222-4.409l.222-.022H104.28c19.942,0,22.158,11.079,22.158,11.079V119.28H148.6a8.863,8.863,0,0,0,8.863-8.863V43.942a8.863,8.863,0,0,0-8.863-8.863H64.4a8.863,8.863,0,0,0-8.863,8.863V83.827l-.133.244A44.316,44.316,0,0,0,9,88.259V24H168.538Z" transform="translate(8.727 26.962)"/><path class="f" d="M18.727,29.228V93.487A43.891,43.891,0,0,0,6.739,107.18l-.709-.4A97.735,97.735,0,0,1,18.727,19.7Z" transform="translate(-1 21.734)"/><path class="f" d="M144.517,25.174v.2H16v-.2a97.5,97.5,0,0,1,128.517,0Z" transform="translate(17.238 -1.001)"/><rect class="c" width="11.079" height="4.432" transform="translate(157.323 31.02)"/><rect class="c" width="11.079" height="4.432" transform="translate(157.323 39.883)"/><path class="h" d="M21.16,95.448,5.649,79.937a2.216,2.216,0,0,1,0-3.133L21.16,61.293l3.133,3.133L10.349,78.37,24.293,92.314Z" transform="translate(3.864 72.303)"/><rect class="h" width="39.947" height="4.434" transform="matrix(0.333, -0.943, 0.943, 0.333, 33.363, 169.878)"/><path class="h" d="M31.426,95.448l-3.133-3.133L42.237,78.37,28.293,64.426l3.133-3.133L46.937,76.8a2.216,2.216,0,0,1,0,3.133Z" transform="translate(32.184 72.303)"/><rect class="d" width="4.432" height="66.474" transform="translate(106.36 70.904)"/><rect class="d" width="35.453" height="4.432" transform="translate(117.439 88.631)"/><rect class="d" width="15.511" height="4.432" transform="translate(117.439 97.494)"/><rect class="d" width="15.511" height="4.432" transform="translate(117.439 106.357)"/><rect class="d" width="28.806" height="4.432" transform="translate(117.439 115.221)"/><rect class="d" width="17.726" height="4.432" transform="translate(117.439 124.084)"/><rect class="d" width="35.453" height="4.432" transform="translate(117.439 132.947)"/><rect class="d" width="6.647" height="4.432" transform="translate(75.338 70.904)"/><rect class="d" width="13.295" height="4.432" transform="translate(86.417 70.904)"/><rect class="d" width="6.647" height="4.432" transform="translate(75.338 81.983)"/><rect class="d" width="13.295" height="4.432" transform="translate(86.417 81.983)"/><rect class="d" width="6.647" height="4.432" transform="translate(75.338 93.062)"/><rect class="d" width="13.295" height="4.432" transform="translate(86.417 93.062)"/><rect class="d" width="6.647" height="4.432" transform="translate(75.338 104.141)"/><rect class="d" width="13.295" height="4.432" transform="translate(86.417 104.141)"/><rect class="d" width="13.295" height="4.432" transform="translate(86.417 115.221)"/></g></svg>