<svg xmlns="http://www.w3.org/2000/svg" width="181.342" height="181.35" viewBox="0 0 181.342 181.35"><defs><style>.a{fill:#fff;}.b{fill:#dadeea;}.c{fill:#706d6d;}.d{fill:#4a4a4a;}.e{fill:#e18712;}</style></defs><g transform="translate(0 0)"><path class="a" d="M40.1,77V97.834a86.158,86.158,0,0,1-10.276-3.607L26,77Z" transform="translate(26.388 78.156)"/><path class="a" d="M62.082,33.239V27.195H52.008V39.284H62.082ZM88.276,17.12V11.076h-14.1V23.165h14.1Zm36.268,16.119V27.195h-14.1V39.284h14.1Zm44.408,30.2-.081.02H110.44V47.344H6.33a88.673,88.673,0,0,1,162.622,16.1Z" transform="translate(6.425 1.023)"/><path class="b" d="M72.1,20.045v6.045H58V14H72.1Z" transform="translate(58.864 14.217)"/><path class="b" d="M54.1,12.045v6.045H40V6H54.1Z" transform="translate(40.596 6.098)"/><path class="b" d="M39.074,20.045v6.045H29V14H39.074Z" transform="translate(29.432 14.217)"/><path class="b" d="M0,0H10.074V8.06H0Z" transform="translate(155.147 108.813)"/><path class="b" d="M0,0H8.06V8.06H0Z" transform="translate(153.132 84.634)"/><rect class="b" width="8.06" height="8.06" transform="translate(137.013 84.634)"/><path class="a" d="M144.363,37A88.7,88.7,0,0,1,33,138.43V117.6H81.357a2.015,2.015,0,0,0,2.015-2.015V37ZM131.73,79.313v-8.06H121.655v8.06ZM127.7,55.134v-8.06h-8.06v8.06Zm-16.119,0v-8.06h-8.06v8.06Z" transform="translate(33.492 37.56)"/><path class="c" d="M118.991,42.085H58V32.01h58.432l.081-.02a83.875,83.875,0,0,1,2.478,10.095Z" transform="translate(58.864 32.475)"/><path class="c" d="M37.255,77l3.828,17.227A87.849,87.849,0,0,1,14.91,77.181L15.091,77Z" transform="translate(15.133 78.156)"/><path class="a" d="M112.388,62.283v66.492a2.015,2.015,0,0,1-2.015,2.015H25.748l-.181.181a83.382,83.382,0,0,1-7.757-8.241h86.52V32.06H4.41A82.273,82.273,0,0,1,8.279,24h104.11Z" transform="translate(4.476 24.366)"/><path class="b" d="M107.79,64.268v54.4H21.27A88.708,88.708,0,0,1,7.871,28H107.79Z" transform="translate(1.015 28.426)"/><rect class="d" width="4.03" height="76.566" transform="translate(124.924 82.619)"/><path class="d" d="M69.015,53.089h8.06a2.015,2.015,0,0,0,2.015-2.015v-8.06A2.015,2.015,0,0,0,77.074,41h-8.06A2.015,2.015,0,0,0,67,43.015v8.06A2.015,2.015,0,0,0,69.015,53.089Zm2.015-8.06h4.03v4.03H71.03Z" transform="translate(67.998 41.619)"/><path class="c" d="M77.015,53.089h8.06a2.015,2.015,0,0,0,2.015-2.015v-8.06A2.015,2.015,0,0,0,85.074,41h-8.06A2.015,2.015,0,0,0,75,43.015v8.06A2.015,2.015,0,0,0,77.015,53.089Zm2.015-8.06h4.03v4.03H79.03Z" transform="translate(76.118 41.619)"/><path class="c" d="M0,0H32.238V4.03H0Z" transform="translate(134.998 98.739)"/><rect class="d" width="14.104" height="4.03" transform="translate(134.998 106.798)"/><rect class="d" width="14.104" height="4.03" transform="translate(134.998 114.858)"/><rect class="d" width="26.194" height="4.03" transform="translate(134.998 122.917)"/><rect class="d" width="16.119" height="4.03" transform="translate(134.998 130.977)"/><path class="c" d="M88.089,53H78.015A2.015,2.015,0,0,0,76,55.015v8.06a2.015,2.015,0,0,0,2.015,2.015H88.089A2.015,2.015,0,0,0,90.1,63.074v-8.06A2.015,2.015,0,0,0,88.089,53Zm-2.015,8.06H80.03V57.03h6.045Z" transform="translate(77.132 53.798)"/><rect class="d" width="8.06" height="4.03" transform="translate(134.998 139.036)"/><path class="d" d="M27.709,75.38l2.849-2.849L15.864,57.837,30.558,43.142l-2.849-2.849L11.59,56.412a2.015,2.015,0,0,0,0,2.849Z" transform="translate(11.165 40.902)"/><path class="d" d="M38.142,75.38,54.261,59.261a2.015,2.015,0,0,0,0-2.849L38.142,40.293l-2.849,2.849L49.988,57.837,35.293,72.531Z" transform="translate(35.819 40.902)"/><rect class="d" width="40.798" height="4.03" transform="translate(46.469 118.192) rotate(-69.778)"/><path class="e" d="M179.836,74.187a86.192,86.192,0,0,0-2.525-10.31A90.688,90.688,0,0,0,10.99,47.391,84.292,84.292,0,0,0,7.028,55.64a90.725,90.725,0,0,0,13.7,92.729,85.362,85.362,0,0,0,7.935,8.43A89.51,89.51,0,0,0,55.43,174.232a87.521,87.521,0,0,0,10.514,3.687A90.707,90.707,0,0,0,179.836,74.187ZM118.879,66.5h54.974q.87,2.974,1.511,6.045H118.879ZM90.67,4.034a86.191,86.191,0,0,1,81.924,58.432H118.879v-14.1a2.015,2.015,0,0,0-2.015-2.015H16.279A86.582,86.582,0,0,1,90.67,4.034ZM4.03,90.675a85.891,85.891,0,0,1,6.23-32.238h96.53v86.64H23.258A86.725,86.725,0,0,1,4.03,90.675Zm22.708,58.432H108.8a2.015,2.015,0,0,0,2.015-2.015V56.421a2.015,2.015,0,0,0-2.015-2.015H11.995q.949-2.067,1.989-4.03H114.849v102.76H30.689Q28.646,151.2,26.738,149.107Zm37.739,24.13c-2.216-.7-4.4-1.473-6.528-2.347L54.9,157.166h9.577Zm-13.7-16.071L53.381,168.9a85.327,85.327,0,0,1-18.219-11.731ZM90.67,177.315a86.917,86.917,0,0,1-22.164-2.908V157.166h46.343a4.03,4.03,0,0,0,4.03-4.03V76.57h57.259A86.546,86.546,0,0,1,90.67,177.315Z" transform="translate(0 0.004)"/><path class="d" d="M39.164,27.1a2.015,2.015,0,0,0,2.015,2.015H51.253A2.015,2.015,0,0,0,53.268,27.1v-4.03h14.1v-4.03h-14.1v-4.03A2.015,2.015,0,0,0,51.253,13H41.179a2.015,2.015,0,0,0-2.015,2.015v4.03H17v4.03H39.164Zm4.03-10.074h6.045v8.06H43.194Z" transform="translate(17.254 13.202)"/><path class="d" d="M47.119,19.1a2.015,2.015,0,0,0,2.015,2.015h14.1A2.015,2.015,0,0,0,65.253,19.1v-4.03H89.432v-4.03H65.253V7.015A2.015,2.015,0,0,0,63.238,5h-14.1a2.015,2.015,0,0,0-2.015,2.015v4.03H31v4.03H47.119ZM51.149,9.03H61.223v8.06H51.149Z" transform="translate(31.462 5.083)"/><path class="d" d="M68.164,15.015v4.03H46v4.03H68.164V27.1a2.015,2.015,0,0,0,2.015,2.015h14.1A2.015,2.015,0,0,0,86.3,27.1v-4.03h14.1v-4.03H86.3v-4.03A2.015,2.015,0,0,0,84.283,13h-14.1A2.015,2.015,0,0,0,68.164,15.015Zm4.03,2.015H82.268v8.06H72.194Z" transform="translate(46.686 13.202)"/></g></svg>