<svg xmlns="http://www.w3.org/2000/svg" viewBox="0 0 194.991 194.995"><defs><style>.a{fill:#4a4a4a;}.b{fill:#a4b0c0;}.c{fill:#95a0af;}.d{fill:#f1f2f2;}.e{fill:#fbb040;}.f{fill:#252527;}.g{fill:#e18712;}.h{fill:#f8963f;}</style></defs><g transform="translate(0 0)"><path class="a" d="M59.316,66v8.863h-42.1A2.216,2.216,0,0,1,15,72.647V68.216A2.216,2.216,0,0,1,17.216,66Z" transform="translate(16.022 78.026)"/><path class="a" d="M106.611,68.216v4.432a2.216,2.216,0,0,1-2.216,2.216H49V66h55.4A2.216,2.216,0,0,1,106.611,68.216Z" transform="translate(57.359 78.026)"/><path class="a" d="M85.942,52.216v4.432a2.216,2.216,0,0,1-2.216,2.216H66V50H83.727A2.216,2.216,0,0,1,85.942,52.216Z" transform="translate(78.028 58.573)"/><path class="a" d="M96.985,50v8.863H17.216A2.216,2.216,0,0,1,15,56.647V52.216A2.216,2.216,0,0,1,17.216,50Z" transform="translate(16.022 58.573)"/><path class="a" d="M121.2,36.216v4.432a2.216,2.216,0,0,1-2.216,2.216H37V34h81.985A2.216,2.216,0,0,1,121.2,36.216Z" transform="translate(42.769 39.12)"/><path class="a" d="M32.726,34v8.863H17.216A2.216,2.216,0,0,1,15,40.647V36.216A2.216,2.216,0,0,1,17.216,34Z" transform="translate(16.022 39.12)"/><path class="b" d="M59.942,78.511v4.432a2.216,2.216,0,0,1-2.216,2.216H40V63H57.726a2.216,2.216,0,0,1,2.216,2.216Z" transform="translate(46.417 74.379)"/><path class="b" d="M71.942,47V69.158H54.216A2.216,2.216,0,0,1,52,66.942V49.216A2.216,2.216,0,0,1,54.216,47Z" transform="translate(61.007 54.926)"/><path class="b" d="M47.942,46.511v4.432a2.216,2.216,0,0,1-2.216,2.216H28V31H45.726a2.216,2.216,0,0,1,2.216,2.216Z" transform="translate(31.827 35.473)"/><path class="c" d="M46.079,63V85.158H37.216A2.216,2.216,0,0,1,35,82.942V65.216A2.216,2.216,0,0,1,37.216,63Z" transform="translate(40.338 74.379)"/><path class="c" d="M72.079,62.511v4.432a2.216,2.216,0,0,1-2.216,2.216H61V47h8.863a2.216,2.216,0,0,1,2.216,2.216Z" transform="translate(71.949 54.926)"/><path class="c" d="M34.079,31V53.158H25.216A2.216,2.216,0,0,1,23,50.942V33.216A2.216,2.216,0,0,1,25.216,31Z" transform="translate(25.748 35.473)"/><path class="d" d="M40.192,59.453a2.216,2.216,0,0,0,2.216,2.216H69a2.216,2.216,0,0,0,2.216-2.216V55.021H153.2a2.216,2.216,0,0,0,2.216-2.216V48.374a2.216,2.216,0,0,0-2.216-2.216H71.213V41.727A2.216,2.216,0,0,0,69,39.511H42.407a2.216,2.216,0,0,0-2.216,2.216v4.432H24.681a2.216,2.216,0,0,0-2.216,2.216v4.432a2.216,2.216,0,0,0,2.216,2.216H40.192Zm26.59,70.906A2.216,2.216,0,0,0,69,132.575h26.59a2.216,2.216,0,0,0,2.216-2.216v-4.432h55.4a2.216,2.216,0,0,0,2.216-2.216V119.28a2.216,2.216,0,0,0-2.216-2.216H97.8v-4.432a2.216,2.216,0,0,0-2.216-2.216H69a2.216,2.216,0,0,0-2.216,2.216v4.432h-42.1a2.216,2.216,0,0,0-2.216,2.216v4.432a2.216,2.216,0,0,0,2.216,2.216h42.1ZM104.45,94.906a2.216,2.216,0,0,0,2.216,2.216h26.59a2.216,2.216,0,0,0,2.216-2.216V90.474H153.2a2.216,2.216,0,0,0,2.216-2.216V83.827a2.216,2.216,0,0,0-2.216-2.216H135.471V77.179a2.216,2.216,0,0,0-2.216-2.216h-26.59a2.216,2.216,0,0,0-2.216,2.216v4.432H24.681a2.216,2.216,0,0,0-2.216,2.216v4.432a2.216,2.216,0,0,0,2.216,2.216H104.45Zm64.259,31.021.31.222a97.5,97.5,0,0,1-160.159,0l.31-.222V24H168.709Z" transform="translate(8.556 26.962)"/><ellipse class="e" cx="4.432" cy="4.432" rx="4.432" ry="4.432" transform="translate(44.316 33.235)"/><ellipse class="e" cx="4.432" cy="4.432" rx="4.432" ry="4.432" transform="translate(26.59 33.235)"/><path class="f" d="M96.806,29.727V38.59H68V12H92.374a4.445,4.445,0,0,1,4.432,4.432Z" transform="translate(80.46 12.372)"/><path class="a" d="M139.733,12V38.59H9V16.432A4.445,4.445,0,0,1,13.432,12ZM44.453,25.295a4.432,4.432,0,1,0-4.432,4.432,4.432,4.432,0,0,0,4.432-4.432Zm-17.726,0a4.432,4.432,0,1,0-4.432,4.432A4.432,4.432,0,0,0,26.726,25.295Z" transform="translate(8.727 12.372)"/><path class="g" d="M81.465,20a97.516,97.516,0,0,1-.155,111.012l-.31-.222V20Z" transform="translate(96.265 22.099)"/><path class="g" d="M18.727,29.228V131.155l-.31.222A97.509,97.509,0,0,1,18.727,19.7Z" transform="translate(-1 21.734)"/><path class="g" d="M144.517,25.174v.2H16v-.2a97.5,97.5,0,0,1,128.517,0Z" transform="translate(17.237 -1.001)"/><rect class="h" width="11.079" height="4.432" transform="translate(157.323 31.02)"/><rect class="h" width="11.079" height="4.432" transform="translate(157.323 39.883)"/></g></svg>