<svg xmlns="http://www.w3.org/2000/svg" viewBox="0 0 194.991 194.995"><defs><style>.a{fill:#dadeea;}.b{fill:#eee;}.c{fill:#252527;}.d{fill:#857e75;}.e{fill:#e18712;}.f{fill:#949fb5;}.g{fill:#f6b229;}</style></defs><g transform="translate(0 0)"><ellipse class="a" cx="11.079" cy="11.079" rx="11.079" ry="11.079" transform="translate(141.812 99.71)"/><path class="a" d="M88.021,64V86.158H57V64Z" transform="translate(67.086 75.594)"/><path class="a" d="M69.021,75.079V86.158H38V64H69.021Z" transform="translate(43.985 75.594)"/><path class="a" d="M50.021,75.079V86.158H19V64H50.021Z" transform="translate(20.885 75.594)"/><ellipse class="a" cx="11.079" cy="11.079" rx="11.079" ry="11.079" transform="translate(31.022 99.71)"/><path class="a" d="M34,58.295,58.374,45,82.748,58.295,58.374,71.59Z" transform="translate(39.122 52.494)"/><path class="a" d="M75.885,29V51.158H36V29Z" transform="translate(41.554 33.041)"/><path class="b" d="M44.623,83.827A11.079,11.079,0,1,0,33.544,94.906,11.079,11.079,0,0,0,44.623,83.827ZM62.35,123.712V112.632H31.328v22.158H62.35Zm50.964-39.885L88.939,70.532,64.566,83.827,88.939,97.122ZM88.939,57.237h19.942V35.079H69V57.237Zm15.511,66.474V112.632H73.429v22.158H104.45Zm11.079,0v11.079h31.021V112.632H115.529Zm17.726-39.885a11.079,11.079,0,1,0,11.079-11.079A11.079,11.079,0,0,0,133.256,83.827Zm35.453,42.1.31.222a97.5,97.5,0,0,1-160.159,0l.31-.222V24H168.709Z" transform="translate(8.556 26.962)"/><path class="a" d="M96.806,29.727V38.59H68V12H92.374a4.445,4.445,0,0,1,4.432,4.432Z" transform="translate(80.46 12.372)"/><ellipse class="c" cx="4.432" cy="4.432" rx="4.432" ry="4.432" transform="translate(44.316 33.235)"/><ellipse class="c" cx="4.432" cy="4.432" rx="4.432" ry="4.432" transform="translate(26.59 33.235)"/><path class="d" d="M139.733,12V38.59H9V16.432A4.445,4.445,0,0,1,13.432,12ZM44.453,25.295a4.432,4.432,0,1,0-4.432,4.432,4.432,4.432,0,0,0,4.432-4.432Zm-17.726,0a4.432,4.432,0,1,0-4.432,4.432A4.432,4.432,0,0,0,26.726,25.295Z" transform="translate(8.727 12.372)"/><path class="e" d="M81.465,20a97.516,97.516,0,0,1-.155,111.012l-.31-.222V20Z" transform="translate(96.265 22.099)"/><path class="e" d="M18.727,29.228V131.155l-.31.222A97.509,97.509,0,0,1,18.727,19.7Z" transform="translate(-1 21.734)"/><path class="e" d="M144.517,25.174v.2H16v-.2a97.5,97.5,0,0,1,128.517,0Z" transform="translate(17.237 -1.001)"/><rect class="f" width="11.079" height="4.432" transform="translate(157.323 31.02)"/><rect class="f" width="11.079" height="4.432" transform="translate(157.323 39.883)"/><path class="g" d="M107.637,81.179H125a13.295,13.295,0,1,0,0-4.432H107.637l-22.723-12.4V54.59H102.64a2.216,2.216,0,0,0,2.216-2.216V30.216A2.216,2.216,0,0,0,102.64,28H62.755a2.216,2.216,0,0,0-2.216,2.216V52.374a2.216,2.216,0,0,0,2.216,2.216H80.482v9.763l-22.723,12.4H40.4a13.295,13.295,0,1,0,0,4.432H57.759l22.723,12.4v11.979H67.187a2.216,2.216,0,0,0-2.216,2.216v8.863H58.324v-8.863a2.216,2.216,0,0,0-2.216-2.216H25.086a2.216,2.216,0,0,0-2.216,2.216v22.158a2.216,2.216,0,0,0,2.216,2.216H56.108a2.216,2.216,0,0,0,2.216-2.216v-8.863h6.647v8.863a2.216,2.216,0,0,0,2.216,2.216H98.208a2.216,2.216,0,0,0,2.216-2.216v-8.863h6.647v8.863a2.216,2.216,0,0,0,2.216,2.216h31.021a2.216,2.216,0,0,0,2.216-2.216V107.769a2.216,2.216,0,0,0-2.216-2.216H109.287a2.216,2.216,0,0,0-2.216,2.216v8.863h-6.647v-8.863a2.216,2.216,0,0,0-2.216-2.216H84.913V93.575ZM138.093,70.1a8.863,8.863,0,1,1-8.863,8.863A8.863,8.863,0,0,1,138.093,70.1ZM64.971,32.432h35.453V50.158H64.971ZM27.3,87.827a8.863,8.863,0,1,1,8.863-8.863A8.863,8.863,0,0,1,27.3,87.827Zm26.59,39.885H27.3V109.985h26.59ZM111.5,109.985h26.59v17.727H111.5ZM95.992,127.712H69.4V109.985h26.59ZM82.7,68.193l19.747,10.771L82.7,89.735,62.95,78.964Z" transform="translate(14.798 31.825)"/><path class="c" d="M17.426,50.153l-3.133-3.133,7.3-7.3-7.3-7.3,3.133-3.133,8.863,8.863a2.216,2.216,0,0,1,0,3.133Z" transform="translate(15.162 33.397)"/><rect class="c" width="15.511" height="4.432" transform="translate(44.316 79.768)"/></g></svg>