<svg xmlns="http://www.w3.org/2000/svg" viewBox="0 0 61.848 60.335"><defs><style>.a{fill:#4a4a4a;}</style></defs><path class="a" d="M57.7,20.767A30.79,30.79,0,0,0,46.446,9.512,30.247,30.247,0,0,0,30.924,5.365,30.25,30.25,0,0,0,15.4,9.512,30.786,30.786,0,0,0,4.147,20.767,30.249,30.249,0,0,0,0,36.288a30.053,30.053,0,0,0,5.9,18.18,30.287,30.287,0,0,0,15.24,11.173,1.8,1.8,0,0,0,1.61-.281,1.575,1.575,0,0,0,.523-1.208q0-.121-.02-2.174t-.02-3.583l-.926.16a11.814,11.814,0,0,1-2.235.141,17.027,17.027,0,0,1-2.8-.282,6.253,6.253,0,0,1-2.7-1.207A5.109,5.109,0,0,1,12.8,54.731l-.4-.927a10.061,10.061,0,0,0-1.268-2.053,4.859,4.859,0,0,0-1.751-1.53l-.282-.2a2.956,2.956,0,0,1-.523-.484,2.209,2.209,0,0,1-.362-.564q-.121-.282.2-.464a2.611,2.611,0,0,1,1.168-.18l.805.12a5.878,5.878,0,0,1,1.993.966,6.5,6.5,0,0,1,1.953,2.093,7.1,7.1,0,0,0,2.235,2.517,4.741,4.741,0,0,0,2.637.865,11.45,11.45,0,0,0,2.3-.2,8.008,8.008,0,0,0,1.812-.6,6.524,6.524,0,0,1,1.973-4.148,27.571,27.571,0,0,1-4.127-.725,16.433,16.433,0,0,1-3.785-1.571,10.84,10.84,0,0,1-3.242-2.7,12.964,12.964,0,0,1-2.114-4.228,20.105,20.105,0,0,1-.825-6.04,11.744,11.744,0,0,1,3.181-8.295,10.824,10.824,0,0,1,.282-8.214,5.642,5.642,0,0,1,3.463.543,24.21,24.21,0,0,1,3.362,1.55q1.067.643,1.711,1.087a29.08,29.08,0,0,1,15.463,0l1.53-.966a21.67,21.67,0,0,1,3.7-1.772,5.277,5.277,0,0,1,3.263-.443,10.72,10.72,0,0,1,.321,8.214,11.746,11.746,0,0,1,3.182,8.295,20.33,20.33,0,0,1-.825,6.06A12.461,12.461,0,0,1,47.7,44.965a11.257,11.257,0,0,1-3.262,2.678,16.464,16.464,0,0,1-3.785,1.571,27.543,27.543,0,0,1-4.127.726q2.093,1.811,2.093,5.717v8.5a1.6,1.6,0,0,0,.5,1.208,1.749,1.749,0,0,0,1.59.281A30.283,30.283,0,0,0,55.95,54.467a30.059,30.059,0,0,0,5.9-18.18A30.274,30.274,0,0,0,57.7,20.767Z" transform="translate(0 -5.365)"/></svg>