<svg xmlns="http://www.w3.org/2000/svg" viewBox="0 0 57 57"><defs><style>.a{fill:#4a4a4a;}</style></defs><g transform="translate(-156 176)"><g transform="translate(156 -176)"><path class="a" d="M51.3,0H5.7A5.717,5.717,0,0,0,0,5.7V51.3A5.717,5.717,0,0,0,5.7,57H51.3A5.717,5.717,0,0,0,57,51.3V5.7A5.717,5.717,0,0,0,51.3,0ZM17.1,48.45H8.55V22.8H17.1Zm-4.275-30.5a5.13,5.13,0,1,1,5.13-5.13A5.109,5.109,0,0,1,12.825,17.955ZM48.45,48.45H39.9v-15.1a4.275,4.275,0,1,0-8.55,0v15.1H22.8V22.8h8.55v3.42a9.206,9.206,0,0,1,7.125-3.99,10.1,10.1,0,0,1,9.975,9.975Z"/></g></g></svg>